# xmcd
#
# Track frame offsets:
#	150
#	13567
#	28442
#	51601
#	77819
#	103599
#
# Disc length: 1591 seconds
#
# Revision: 1
# Processed by: cddbd v1.5.2PL0 Copyright (c) Steve Scherf et al.
# Submitted via: audiograbber 1.83.01
#
DISCID=4c063506
DTITLE=Basshunter - Dota
DYEAR=2007
DGENRE=Dance
TTITLE0=Dota (New Single Version)
TTITLE1=Dota (Radio Edit)
TTITLE2=Dota (Pj Harmony Saturday Remix)
TTITLE3=Dota (Asshunter Remix)
TTITLE4=Dota (Extended Version)
TTITLE5=Boten Anna (German Version)
EXTD=
EXTT0=
EXTT1=
EXTT2=
EXTT3=
EXTT4=
EXTT5=
PLAYORDER=
